<svg xmlns="http://www.w3.org/2000/svg" width="50" height="50" viewBox="0 0 50 50" fill="none"><path d="M45.0001 14.0005H16.0011C15.2058 14.0014 14.4432 14.3177 13.8808 14.8802C13.3184 15.4426 13.0021 16.2051 13.0012 17.0005V38.0001C13.0021 38.7954 13.3184 39.558 13.8808 40.1204C14.4432 40.6828 15.2058 40.9991 16.0011 41H31.0006V46.9999C31.0005 47.1871 31.053 47.3706 31.1521 47.5294C31.2512 47.6882 31.3929 47.816 31.5611 47.8983C31.7293 47.9805 31.9172 48.0139 32.1034 47.9946C32.2896 47.9752 32.4666 47.904 32.6143 47.789L41.3435 41H45.0001C45.7955 40.9991 46.558 40.6828 47.1204 40.1204C47.6828 39.558 47.9992 38.7954 48 38.0001V17.0005C47.9992 16.2051 47.6828 15.4426 47.1204 14.8802C46.558 14.3177 45.7955 14.0014 45.0001 14.0005Z" fill="#3FCCF9"></path><path d="M30.1002 26.9632C29.8829 26.5394 29.7721 26.0691 29.7773 25.5928C29.7825 25.1166 29.9035 24.6488 30.13 24.2298C31.1991 22.2891 31.8249 20.1356 31.9624 17.9241C32.0998 15.7126 31.7455 13.4981 30.9248 11.44C30.1042 9.3818 28.8377 7.53105 27.2163 6.02084C25.595 4.51062 23.6591 3.37847 21.5479 2.7058C19.4368 2.03313 17.2028 1.83666 15.0066 2.13051C12.8104 2.42437 10.7067 3.20125 8.84661 4.40529C6.98655 5.60933 5.41643 7.2106 4.24915 9.09395C3.08188 10.9773 2.34646 13.0959 2.09579 15.2974C1.85636 17.3974 2.06331 19.5242 2.7031 21.5386C3.34288 23.553 4.40106 25.4095 5.80831 26.9865C7.21556 28.5634 8.94011 29.8252 10.869 30.6893C12.7979 31.5533 14.8875 32 17.0011 32.0002H31.0006C31.171 32.0001 31.3386 31.9565 31.4874 31.8735C31.6362 31.7904 31.7614 31.6708 31.851 31.5258C31.9406 31.3808 31.9917 31.2154 31.9994 31.0451C32.0071 30.8749 31.9712 30.7055 31.8951 30.553L30.1002 26.9632Z" fill="#3772FE"></path><path d="M17.0011 24.2503C16.8698 24.2503 16.7397 24.2245 16.6184 24.1743C16.497 24.124 16.3868 24.0504 16.2939 23.9575C16.2011 23.8647 16.1274 23.7544 16.0772 23.6331C16.0269 23.5118 16.0011 23.3817 16.0011 23.2504V20.9916C16.0064 20.3243 16.2324 19.6775 16.6439 19.1521C17.0554 18.6267 17.6292 18.2524 18.2759 18.0874C19.5225 17.7512 20.5923 16.949 21.2643 15.8466C21.9364 14.7442 22.1593 13.4258 21.8871 12.1637C21.6849 11.2327 21.2193 10.3795 20.5457 9.70574C19.8721 9.03202 19.019 8.56623 18.088 8.36391C17.3513 8.20456 16.5883 8.21211 15.855 8.38599C15.1216 8.55988 14.4365 8.89569 13.8498 9.36881C13.2715 9.83685 12.8053 10.4284 12.4854 11.1001C12.1656 11.7718 12.0001 12.5066 12.0013 13.2506C12.0013 13.5158 11.8959 13.7702 11.7084 13.9577C11.5209 14.1452 11.2665 14.2506 11.0013 14.2506C10.7361 14.2506 10.4817 14.1452 10.2942 13.9577C10.1066 13.7702 10.0013 13.5158 10.0013 13.2506C10.0009 11.9421 10.3671 10.6597 11.0585 9.54876C11.7498 8.43783 12.7386 7.54282 13.9127 6.96523C15.0868 6.38764 16.3993 6.15058 17.7012 6.28093C19.0032 6.41127 20.2426 6.90381 21.2789 7.70269C22.3152 8.50157 23.107 9.57483 23.5644 10.8008C24.0217 12.0267 24.1265 13.3563 23.8667 14.6387C23.6069 15.9212 22.993 17.1052 22.0946 18.0565C21.1962 19.0078 20.0492 19.6883 18.7837 20.0209C18.5634 20.0718 18.3666 20.1951 18.2247 20.3711C18.0828 20.5471 18.004 20.7656 18.001 20.9916V23.2504C18.001 23.3817 17.9752 23.5118 17.9249 23.6331C17.8747 23.7544 17.8011 23.8647 17.7082 23.9575C17.6153 24.0504 17.5051 24.124 17.3838 24.1743C17.2624 24.2245 17.1324 24.2503 17.0011 24.2503ZM17.0011 25.7503C16.7044 25.7503 16.4144 25.8382 16.1677 26.0031C15.921 26.1679 15.7287 26.4021 15.6152 26.6762C15.5016 26.9503 15.4719 27.2519 15.5298 27.5429C15.5877 27.8339 15.7305 28.1011 15.9403 28.3109C16.1501 28.5207 16.4173 28.6636 16.7083 28.7215C16.9993 28.7794 17.3009 28.7497 17.575 28.6361C17.8491 28.5226 18.0834 28.3303 18.2482 28.0837C18.413 27.837 18.501 27.547 18.501 27.2503C18.501 26.8525 18.343 26.471 18.0617 26.1897C17.7804 25.9084 17.3989 25.7503 17.0011 25.7503ZM43.0002 20.0004H35.0005C34.8683 20.0017 34.7372 19.9768 34.6147 19.9272C34.4923 19.8775 34.3808 19.8041 34.2869 19.7111C34.193 19.6181 34.1184 19.5074 34.0676 19.3854C34.0167 19.2635 33.9905 19.1326 33.9905 19.0005C33.9905 18.8683 34.0167 18.7374 34.0676 18.6155C34.1184 18.4935 34.193 18.3828 34.2869 18.2898C34.3808 18.1968 34.4923 18.1234 34.6147 18.0737C34.7372 18.0241 34.8683 17.9992 35.0005 18.0005H43.0002C43.2636 18.0031 43.5154 18.1097 43.7008 18.2969C43.8862 18.4841 43.9902 18.737 43.9902 19.0005C43.9902 19.2639 43.8862 19.5168 43.7008 19.704C43.5154 19.8913 43.2636 19.9978 43.0002 20.0004ZM43.0002 26.0003H33.0005C32.737 25.9977 32.4852 25.8912 32.2998 25.7039C32.1145 25.5167 32.0105 25.2638 32.0105 25.0004C32.0105 24.7369 32.1145 24.484 32.2998 24.2968C32.4852 24.1096 32.737 24.003 33.0005 24.0004H43.0002C43.2636 24.003 43.5154 24.1096 43.7008 24.2968C43.8862 24.484 43.9902 24.7369 43.9902 25.0004C43.9902 25.2638 43.8862 25.5167 43.7008 25.7039C43.5154 25.8912 43.2636 25.9977 43.0002 26.0003ZM43.0002 32.0002H35.0005C34.7353 32.0002 34.4809 31.8948 34.2934 31.7073C34.1058 31.5198 34.0005 31.2654 34.0005 31.0002C34.0005 30.735 34.1058 30.4806 34.2934 30.2931C34.4809 30.1056 34.7353 30.0002 35.0005 30.0002H43.0002C43.2654 30.0002 43.5197 30.1056 43.7073 30.2931C43.8948 30.4806 44.0002 30.735 44.0002 31.0002C44.0002 31.2654 43.8948 31.5198 43.7073 31.7073C43.5197 31.8948 43.2654 32.0002 43.0002 32.0002ZM43.0002 37.0001H18.001C17.7358 37.0001 17.4814 36.8947 17.2939 36.7072C17.1063 36.5197 17.001 36.2653 17.001 36.0001C17.001 35.7349 17.1063 35.4805 17.2939 35.293C17.4814 35.1055 17.7358 35.0001 18.001 35.0001H43.0002C43.2654 35.0001 43.5197 35.1055 43.7073 35.293C43.8948 35.4805 44.0002 35.7349 44.0002 36.0001C44.0002 36.2653 43.8948 36.5197 43.7073 36.7072C43.5197 36.8947 43.2654 37.0001 43.0002 37.0001Z" fill="#FAFAFA"></path></svg>