<svg width="90" height="90" viewBox="0 0 90 90" fill="none" xmlns="http://www.w3.org/2000/svg">
<rect x="0.5" y="0.5" width="89" height="89" rx="44.5" fill="#F97316"/>
<rect x="0.5" y="0.5" width="89" height="89" rx="44.5" stroke="#E1E2E9"/>
<path d="M44.6786 26.6584C35.761 26.6584 28.5067 33.9127 28.5067 42.8303C28.5067 52.2895 37.1878 58.0226 42.932 61.8169L43.9097 62.4658C44.1426 62.621 44.4106 62.6986 44.6786 62.6986C44.9466 62.6986 45.2146 62.621 45.4474 62.4658L46.4252 61.8169C52.1694 58.0226 60.8505 52.2895 60.8505 42.8303C60.8505 33.9127 53.5962 26.6584 44.6786 26.6584ZM44.8985 59.5031L44.6786 59.6493L44.4586 59.5031C38.8955 55.8288 31.279 50.798 31.279 42.8303C31.279 35.4412 37.2894 29.4308 44.6786 29.4308C52.0677 29.4308 58.0781 35.4412 58.0781 42.8303C58.0781 50.798 50.4598 55.8307 44.8985 59.5031ZM44.6786 36.8236C41.3666 36.8236 38.6719 39.5183 38.6719 42.8303C38.6719 46.1423 41.3666 48.837 44.6786 48.837C47.9906 48.837 50.6853 46.1423 50.6853 42.8303C50.6853 39.5183 47.9906 36.8236 44.6786 36.8236ZM44.6786 46.0647C42.8951 46.0647 41.4442 44.6138 41.4442 42.8303C41.4442 41.0468 42.8951 39.5959 44.6786 39.5959C46.4621 39.5959 47.913 41.0468 47.913 42.8303C47.913 44.6138 46.4621 46.0647 44.6786 46.0647Z" fill="#FAFAFA"/>
</svg>
